<?xml version="1.0" encoding="utf-8"?>
<svg width="128px" height="31px" viewBox="0 0 128 31" version="1.1" xmlns:xlink="http://www.w3.org/1999/xlink" xmlns="http://www.w3.org/2000/svg">
  <path d="M0 0L128 0L128 29L0 29L0 0Z" id="Rectangle" fill="#FFFFFF" fill-rule="evenodd" stroke="none" />
  <path d="M10.4616 0L13.6945 6.5504L20.9233 7.6008L18.8747 9.59769L15.6924 12.6996L16.9273 19.8992L10.4617 16.5L3.99603 19.8992L5.23083 12.6996L0 7.60086L7.2288 6.55042L10.4616 0Z" transform="translate(100.53836 9)" id="Star-5" fill="#FAE800" fill-rule="evenodd" stroke="none" />
  <path d="M10.4616 0L10.4616 7.60086L10.4616 9L10.4616 12.6996L10.4616 12.6996L10.4616 16.5L3.99603 19.8992L5.23083 12.6996L0 7.60086L7.2288 6.55042L10.4616 0Z" transform="translate(100.53836 9)" id="Star-8" fill="#BBA7A7" fill-rule="evenodd" stroke="none" />
  <path d="M11 0L14.2328 6.55041L21.4616 7.6008L16.2308 12.6996L17.4657 19.8992L11 16.5L4.53439 19.8992L5.76919 12.6996L0.538364 7.60086L7.76716 6.55042L11 0Z" transform="translate(76 9)" id="Star-4" fill="#FAE800" fill-rule="evenodd" stroke="none" />
  <path d="M10.4616 0L10.4616 7.60086L10.4616 9L10.4616 12.6996L10.4616 12.6996L10.4616 16.5L3.99603 19.8992L5.23083 12.6996L0 7.60086L7.2288 6.55042L10.4616 0Z" transform="translate(76.53833 9)" id="Star-10" fill="#BBA7A7" fill-rule="evenodd" stroke="none" />
  <path d="M10.4616 0L10.4616 7.60086L10.4616 9L10.4616 12.6996L10.4616 12.6996L10.4616 16.5L3.99603 19.8992L5.23083 12.6996L0 7.60086L7.2288 6.55042L10.4616 0Z" transform="matrix(-1 0 0 1 97.46167 9)" id="Star-7" fill="#BBA7A7" fill-rule="evenodd" stroke="none" />
  <path d="M11 0L14.2328 6.55041L21.4616 7.6008L16.2308 12.6996L17.4657 19.8992L11 16.5L4.53439 19.8992L5.76919 12.6996L0.538364 7.60086L7.76716 6.55042L11 0Z" transform="translate(52 9)" id="Star-3" fill="#FAE800" fill-rule="evenodd" stroke="none" />
  <path d="M11 0L14.2328 6.55041L21.4616 7.6008L16.2308 12.6996L17.4657 19.8992L11 16.5L4.53439 19.8992L5.76919 12.6996L0.538364 7.60086L7.76716 6.55042L11 0Z" transform="translate(28 9)" id="Star-2" fill="#FAE800" fill-rule="evenodd" stroke="none" />
  <path d="M11 0L14.2328 6.55041L21.4616 7.6008L16.2308 12.6996L17.4657 19.8992L11 16.5L4.53439 19.8992L5.7692 12.6996L0.538364 7.60086L7.76716 6.55042L11 0Z" transform="translate(4 9)" id="Star" fill="#FAE800" fill-rule="evenodd" stroke="none" />
  <path d="M10.4616 0L10.4616 7.60086L10.4616 9L10.4616 12.6996L10.4616 12.6996L10.4616 16.5L3.99603 19.8992L5.23083 12.6996L0 7.60086L7.2288 6.55042L10.4616 0Z" transform="matrix(-1 0 0 1 121.46161 9)" id="Star-6" fill="#BBA7A7" fill-rule="evenodd" stroke="none" />
</svg>