<?xml version="1.0" encoding="utf-8"?>
<svg width="89px" height="22px" viewBox="0 0 89 22" version="1.1" xmlns:xlink="http://www.w3.org/1999/xlink" xmlns="http://www.w3.org/2000/svg">
  <g id="Clock.com" fill="#FFFFFF">
    <path d="M12.1193 8.54545L10.5341 8.54545Q10.3423 7.63778 9.79901 7.01775Q9.25568 6.39773 8.48864 6.07812Q7.72159 5.75852 6.85227 5.75852Q5.66335 5.75852 4.70135 6.35937Q3.73935 6.96023 3.17365 8.12997Q2.60795 9.29972 2.60795 11Q2.60795 12.7003 3.17365 13.87Q3.73935 15.0398 4.70135 15.6406Q5.66335 16.2415 6.85227 16.2415Q7.72159 16.2415 8.48864 15.9219Q9.25568 15.6023 9.79901 14.9822Q10.3423 14.3622 10.5341 13.4545L12.1193 13.4545Q11.8764 14.7969 11.1286 15.7525Q10.3807 16.7081 9.27486 17.2163Q8.16903 17.7244 6.85227 17.7244Q5.17756 17.7244 3.87358 16.9063Q2.5696 16.0881 1.82173 14.5795Q1.07386 13.071 1.07386 11Q1.07386 8.92898 1.82173 7.42045Q2.5696 5.91193 3.87358 5.09375Q5.17756 4.27557 6.85227 4.27557Q8.16903 4.27557 9.27486 4.78374Q10.3807 5.2919 11.1286 6.24751Q11.8764 7.20312 12.1193 8.54545ZM15.9801 17.5455L14.4716 17.5455L14.4716 4.45454L15.9801 4.45454L15.9801 17.5455ZM41.0369 4.45454L39.5284 4.45454L39.5284 17.5455L41.0369 17.5455L41.0369 13.87L42.0916 12.892L45.767 17.5455L47.6847 17.5455L43.2294 11.9205L47.3778 7.72727L45.5114 7.72727L41.2159 12.0994L41.0369 12.0994L41.0369 4.45454ZM20.4002 17.1172Q21.4006 17.75 22.7301 17.75Q24.0597 17.75 25.06 17.1172Q26.0604 16.4844 26.6197 15.3466Q27.179 14.2088 27.179 12.6875Q27.179 11.1534 26.6197 10.0092Q26.0604 8.86506 25.06 8.23224Q24.0597 7.59943 22.7301 7.59943Q21.4006 7.59943 20.4002 8.23224Q19.3999 8.86506 18.8406 10.0092Q18.2813 11.1534 18.2813 12.6875Q18.2813 14.2088 18.8406 15.3466Q19.3999 16.4844 20.4002 17.1172ZM33.4688 17.75Q32.0881 17.75 31.0909 17.098Q30.0938 16.446 29.5568 15.3018Q29.0199 14.1577 29.0199 12.6875Q29.0199 11.1918 29.5728 10.0444Q30.1257 8.89702 31.1197 8.24822Q32.1136 7.59943 33.4432 7.59943Q34.4787 7.59943 35.3097 7.98295Q36.1406 8.36648 36.6712 9.05682Q37.2017 9.74716 37.3295 10.6676L35.821 10.6676Q35.6484 9.99645 35.0572 9.4755Q34.4659 8.95455 33.4688 8.95454Q32.1456 8.95454 31.337 9.96129Q30.5284 10.968 30.5284 12.6364Q30.5284 14.343 31.3274 15.369Q32.1264 16.3949 33.4688 16.3949Q34.3509 16.3949 34.9805 15.9411Q35.6101 15.4872 35.821 14.6818L37.3295 14.6818Q37.2017 15.5511 36.6999 16.2447Q36.1982 16.9382 35.3768 17.3441Q34.5554 17.75 33.4688 17.75ZM55.892 17.098Q56.8892 17.75 58.2699 17.75Q59.3565 17.75 60.1779 17.3441Q60.9993 16.9382 61.5011 16.2447Q62.0028 15.5511 62.1307 14.6818L60.6222 14.6818Q60.4112 15.4872 59.7816 15.9411Q59.152 16.3949 58.2699 16.3949Q56.9276 16.3949 56.1286 15.369Q55.3295 14.343 55.3295 12.6364Q55.3295 10.968 56.1381 9.96129Q56.9467 8.95454 58.2699 8.95454Q59.267 8.95455 59.8583 9.4755Q60.4496 9.99645 60.6222 10.6676L62.1307 10.6676Q62.0028 9.74716 61.4723 9.05682Q60.9418 8.36648 60.1108 7.98295Q59.2798 7.59943 58.2443 7.59943Q56.9148 7.59943 55.9208 8.24822Q54.9268 8.89702 54.3739 10.0444Q53.821 11.1918 53.821 12.6875Q53.821 14.1577 54.358 15.3018Q54.8949 16.446 55.892 17.098ZM68.3182 17.75Q66.9886 17.75 65.9883 17.1172Q64.9879 16.4844 64.4286 15.3466Q63.8693 14.2088 63.8693 12.6875Q63.8693 11.1534 64.4286 10.0092Q64.9879 8.86506 65.9883 8.23224Q66.9886 7.59943 68.3182 7.59943Q69.6477 7.59943 70.6481 8.23224Q71.6484 8.86506 72.2077 10.0092Q72.767 11.1534 72.767 12.6875Q72.767 14.2088 72.2077 15.3466Q71.6484 16.4844 70.6481 17.1172Q69.6477 17.75 68.3182 17.75ZM76.5256 7.72727L75.0682 7.72727L75.0682 17.5455L76.5767 17.5455L76.5767 11.4091Q76.5767 10.6868 76.8867 10.1339Q77.1967 9.58097 77.7049 9.26775Q78.2131 8.95454 78.8011 8.95454Q79.6577 8.95455 80.201 9.4691Q80.7443 9.98366 80.7443 10.821L80.7443 17.5455L82.2784 17.5455L82.2784 11.1534Q82.2784 10.201 82.8473 9.57777Q83.4162 8.95454 84.4517 8.95454Q85.2571 8.95455 85.8516 9.42116Q86.446 9.88778 86.446 10.9744L86.446 17.5455L87.9545 17.5455L87.9545 10.9744Q87.9545 9.24219 87.1172 8.42081Q86.2798 7.59943 84.9631 7.59943Q83.9084 7.59943 83.1541 8.05007Q82.3999 8.50071 82.0227 9.26136L81.9205 9.26136Q81.5561 8.47514 80.9073 8.03729Q80.2585 7.59943 79.2869 7.59943Q78.3281 7.59943 77.6442 8.03729Q76.9602 8.47514 76.6534 9.26136L76.5256 9.26136L76.5256 7.72727ZM24.392 15.8771Q23.7401 16.3949 22.7301 16.3949Q21.7202 16.3949 21.0682 15.8771Q20.4162 15.3594 20.103 14.5156Q19.7898 13.6719 19.7898 12.6875Q19.7898 11.7031 20.103 10.853Q20.4162 10.0028 21.0682 9.47869Q21.7202 8.95454 22.7301 8.95454Q23.7401 8.95454 24.392 9.47869Q25.044 10.0028 25.3572 10.853Q25.6705 11.7031 25.6705 12.6875Q25.6705 13.6719 25.3572 14.5156Q25.044 15.3594 24.392 15.8771ZM68.3182 16.3949Q69.3281 16.3949 69.9801 15.8771Q70.6321 15.3594 70.9453 14.5156Q71.2585 13.6719 71.2585 12.6875Q71.2585 11.7031 70.9453 10.853Q70.6321 10.0028 69.9801 9.47869Q69.3281 8.95454 68.3182 8.95454Q67.3082 8.95454 66.6563 9.47869Q66.0043 10.0028 65.6911 10.853Q65.3778 11.7031 65.3778 12.6875Q65.3778 13.6719 65.6911 14.5156Q66.0043 15.3594 66.6563 15.8771Q67.3082 16.3949 68.3182 16.3949ZM50.4205 17.6477Q49.9474 17.6477 49.6087 17.3089Q49.2699 16.9702 49.2699 16.4972Q49.2699 16.0241 49.6087 15.6854Q49.9474 15.3466 50.4205 15.3466Q50.8935 15.3466 51.2322 15.6854Q51.571 16.0241 51.571 16.4972Q51.571 16.9702 51.2322 17.3089Q50.8935 17.6477 50.4205 17.6477Z" />
  </g>
</svg>